<?xml version="1.0" encoding="iso-8859-1"?>
<!-- Generator: Adobe Illustrator 19.0.0, SVG Export Plug-In . SVG Version: 6.00 Build 0)  -->
<svg version="1.1" id="Layer_1" xmlns="http://www.w3.org/2000/svg" xmlns:xlink="http://www.w3.org/1999/xlink" x="0px" y="0px"
	 viewBox="0 0 494.452 494.452" style="enable-background:new 0 0 494.452 494.452;" xml:space="preserve">
<g>
	<g id="XMLID_1498_">
		<polygon style="fill:#E9483D;" points="247.226,29.56 247.226,393.293 389.758,468.226 362.537,309.515 477.847,197.115 
			319.043,174.199 		"/>
	</g>
	<g id="XMLID_1472_">
		<path style="fill:#ED6D64;" d="M247.226,29.56c0,0,109.651,192.404,0,363.733l-142.531,74.933l27.221-158.711l-115.31-112.4
			L175.96,173.96L247.226,29.56z"/>
	</g>
	<g id="XMLID_1159_">
		<polygon style="fill:#FFFFFF;" points="129.125,460.649 110.888,460.649 135.926,309.107 25.309,200.733 39.094,189.136 
			155.047,303.558 		"/>
	</g>
	<g id="XMLID_554_">
		<path style="fill:#1D1D1B;" d="M400.021,482.352l-152.794-80.328L94.432,482.352l29.181-170.14L0,191.72l170.829-24.823
			L247.226,12.1l76.398,154.797l170.828,24.823L370.839,312.213L400.021,482.352z M33.211,202.511l107.007,104.306l-25.261,147.284
			l132.269-69.538L379.495,454.1l-25.262-147.283l107.008-104.306L313.36,181.022L247.226,47.02l-66.134,134.002L33.211,202.511z"/>
	</g>
	<g id="XMLID_1043_">
		<polygon style="fill:#1D1D1B;" points="324.729,332.797 315.941,297.644 334.489,279.095 345.417,290.023 333.057,302.384 
			339.723,329.049 		"/>
	</g>
</g>
<g>
</g>
<g>
</g>
<g>
</g>
<g>
</g>
<g>
</g>
<g>
</g>
<g>
</g>
<g>
</g>
<g>
</g>
<g>
</g>
<g>
</g>
<g>
</g>
<g>
</g>
<g>
</g>
<g>
</g>
</svg>
